<svg width="16" height="16" viewBox="0 0 16 16" fill="none" xmlns="http://www.w3.org/2000/svg">
<path d="M16 8C16 12.4183 12.4183 16 8 16C3.58172 16 0 12.4183 0 8C0 3.58172 3.58172 0 8 0C12.4183 0 16 3.58172 16 8Z" fill="black"/>
<path d="M10.2248 6.40657C10.4494 6.18202 10.4494 5.81795 10.2248 5.5934C10.0003 5.36885 9.63619 5.36885 9.41164 5.5934L7.00134 8.00371L6.77285 7.77522C6.54829 7.55067 6.18422 7.55067 5.95967 7.77522C5.73512 7.99977 5.73512 8.36384 5.95967 8.58839L6.18816 8.81688L5.81823 9.18682L4.40664 7.77522C4.18208 7.55067 3.81801 7.55067 3.59346 7.77522C3.36891 7.99977 3.36891 8.36384 3.59346 8.58839L5.41164 10.4066C5.51948 10.5144 5.66573 10.575 5.81823 10.575C5.97073 10.575 6.11698 10.5144 6.22482 10.4066L7.00134 9.63005L7.77785 10.4066C7.88569 10.5144 8.03194 10.575 8.18444 10.575C8.33694 10.575 8.48319 10.5144 8.59103 10.4066L12.591 6.40657C12.8156 6.18202 12.8156 5.81795 12.591 5.5934C12.3665 5.36885 12.0024 5.36885 11.7779 5.5934L8.18444 9.18682L7.81451 8.81688L10.2248 6.40657Z" fill="white"/>
</svg>
