<svg width="16" height="16" viewBox="0 0 16 16" fill="none" xmlns="http://www.w3.org/2000/svg">
<path d="M15.9647 0.685806C16.0011 0.594942 16.01 0.495402 15.9904 0.399526C15.9707 0.303649 15.9233 0.215653 15.8541 0.146447C15.7849 0.0772403 15.6969 0.0298668 15.601 0.0101994C15.5052 -0.0094681 15.4056 -0.000564594 15.3147 0.0358061L0.76775 5.85481H0.76675L0.31475 6.03481C0.22914 6.06895 0.154635 6.1261 0.0994654 6.19994C0.0442956 6.27377 0.0106078 6.36142 0.00212322 6.4532C-0.00636132 6.54497 0.0106876 6.63731 0.0513867 6.72001C0.0920859 6.8027 0.154851 6.87254 0.23275 6.92181L0.64275 7.18181L0.64375 7.18381L5.63875 10.3618L7.22875 12.8598C8.00075 13.9998 8.00075 12.9998 8.00075 12.4998C8.00063 11.8644 8.13508 11.2362 8.39525 10.6565C8.65541 10.0767 9.0354 9.5587 9.5102 9.13643C9.985 8.71415 10.5438 8.39722 11.15 8.20648C11.7561 8.01575 12.3957 7.95553 13.0267 8.02981L15.9647 0.685806ZM14.1317 2.57581L6.63775 10.0698L6.42275 9.73181C6.38336 9.66978 6.33078 9.6172 6.26875 9.57781L5.93075 9.36281L13.4247 1.86881L14.6027 1.39781L14.1327 2.57581H14.1317Z" fill="black"/>
<path d="M16.0011 12.5C16.0011 13.4283 15.6324 14.3185 14.976 14.9749C14.3196 15.6313 13.4294 16 12.5011 16C11.5728 16 10.6826 15.6313 10.0262 14.9749C9.36985 14.3185 9.0011 13.4283 9.0011 12.5C9.0011 11.5717 9.36985 10.6815 10.0262 10.0251C10.6826 9.36875 11.5728 9 12.5011 9C13.4294 9 14.3196 9.36875 14.976 10.0251C15.6324 10.6815 16.0011 11.5717 16.0011 12.5ZM14.0081 10.821C13.9518 10.7872 13.8893 10.7649 13.8244 10.7553C13.7594 10.7457 13.6932 10.7489 13.6295 10.7649C13.5658 10.7809 13.5058 10.8092 13.4531 10.8484C13.4004 10.8875 13.3558 10.9367 13.3221 10.993L12.1521 12.943L11.6051 12.396C11.5112 12.3021 11.3839 12.2494 11.2511 12.2494C11.1183 12.2494 10.991 12.3021 10.8971 12.396C10.8032 12.4899 10.7505 12.6172 10.7505 12.75C10.7505 12.8828 10.8032 13.0101 10.8971 13.104L11.6711 13.877C11.7517 13.9577 11.8496 14.019 11.9574 14.0562C12.0652 14.0934 12.1801 14.1055 12.2933 14.0916C12.4064 14.0777 12.515 14.0382 12.6106 13.9761C12.7062 13.9139 12.7864 13.8308 12.8451 13.733L14.1801 11.507C14.2139 11.4507 14.2362 11.3882 14.2458 11.3233C14.2554 11.2583 14.2522 11.1921 14.2362 11.1284C14.2202 11.0647 14.1919 11.0047 14.1527 10.952C14.1136 10.8993 14.0644 10.8547 14.0081 10.821Z" fill="black"/>
</svg>
