<svg width="16" height="16" viewBox="0 0 16 16" fill="none" xmlns="http://www.w3.org/2000/svg">
<path d="M16 8C16 12.4183 12.4183 16 8 16C3.58172 16 0 12.4183 0 8C0 3.58172 3.58172 0 8 0C12.4183 0 16 3.58172 16 8Z" fill="black"/>
<path  d="M11.7246 5.5934C11.9491 5.81795 11.9491 6.18202 11.7246 6.40657L7.72457 10.4066C7.61674 10.5144 7.47049 10.575 7.31799 10.575C7.16549 10.575 7.01923 10.5144 6.9114 10.4066L5.09322 8.58839C4.86867 8.36384 4.86867 7.99977 5.09322 7.77522C5.31777 7.55067 5.68184 7.55067 5.90639 7.77522L7.31799 9.18682L10.9114 5.5934C11.136 5.36885 11.5 5.36885 11.7246 5.5934Z" fill="white"/>
</svg>
