<svg width="16" height="16" viewBox="0 0 16 16" fill="none" xmlns="http://www.w3.org/2000/svg">
<path d="M7.992 0C3.576 0 0 3.584 0 8C0 12.416 3.576 16 7.992 16C12.416 16 16 12.416 16 8C16 3.584 12.416 0 7.992 0ZM11.1983 11.2057C10.8853 11.5164 10.3798 11.5153 10.0683 11.203L7.49207 8.62075C7.30504 8.43328 7.2 8.17928 7.2 7.91447V4.8C7.2 4.35817 7.55817 4 8 4C8.44183 4 8.8 4.35817 8.8 4.8V7.25779C8.8 7.523 8.90536 7.77736 9.09289 7.96489L11.2003 10.0723C11.5135 10.3855 11.5126 10.8936 11.1983 11.2057Z" fill="black"/>
</svg>
