<svg width="80" height="80" viewBox="0 0 80 80" fill="none" xmlns="http://www.w3.org/2000/svg">
<path d="M75.6781 43.1676L55.59 8.37399C53.0701 4.00943 47.4892 2.51402 43.1246 5.0339L8.33102 25.122C3.96646 27.6419 2.47105 33.2228 4.99093 37.5874L25.079 72.381C27.5989 76.7455 33.1798 78.2409 37.5444 75.721L72.338 55.633C76.7025 53.1131 78.198 47.5321 75.6781 43.1676Z" fill="#FCD0D2"/>
<path fill-rule="evenodd" clip-rule="evenodd" d="M65.1175 25.488C65.508 25.0974 65.508 24.4643 65.1175 24.0738L64.3907 23.347C64.1266 23.0829 64.1266 22.6548 64.3907 22.3907C64.6548 22.1266 65.0829 22.1266 65.347 22.3907L66.0737 23.1175C66.4643 23.508 67.0974 23.508 67.488 23.1175L68.2154 22.39C68.4794 22.126 68.9074 22.126 69.1714 22.39C69.4354 22.654 69.4354 23.082 69.1714 23.346L68.444 24.0735C68.0534 24.464 68.0534 25.0972 68.444 25.4877L69.1707 26.2145C69.4348 26.4785 69.4348 26.9067 69.1707 27.1708C68.9067 27.4348 68.4785 27.4348 68.2145 27.1707L67.4877 26.444C67.0972 26.0535 66.464 26.0535 66.0735 26.444L65.346 27.1714C65.082 27.4354 64.654 27.4354 64.39 27.1714C64.126 26.9074 64.126 26.4794 64.39 26.2154L65.1175 25.488Z" fill="#F34549"/>
<path fill-rule="evenodd" clip-rule="evenodd" d="M15.9482 58.1592C16.365 58.5215 16.9966 58.4773 17.3589 58.0605L18.0332 57.2848C18.2782 57.003 18.7053 56.9731 18.9872 57.2181C19.269 57.4631 19.2989 57.8902 19.0539 58.1721L18.3796 58.9478C18.0173 59.3646 18.0614 59.9962 18.4782 60.3585L19.2546 61.0334C19.5364 61.2784 19.5662 61.7053 19.3213 61.9871C19.0764 62.2689 18.6494 62.2987 18.3676 62.0538L17.5913 61.3789C17.1744 61.0166 16.5428 61.0607 16.1805 61.4775L15.5062 62.2532C15.2612 62.5351 14.8341 62.565 14.5522 62.3199C14.2704 62.0749 14.2405 61.6478 14.4855 61.366L15.1598 60.5903C15.5222 60.1735 15.478 59.5419 15.0612 59.1795L14.2848 58.5046C14.003 58.2597 13.9731 57.8327 14.2181 57.5509C14.463 57.2692 14.89 57.2393 15.1717 57.4842L15.9482 58.1592Z" fill="#F34549"/>
<path d="M70.3269 52H44.6731C43.7491 52 43 52.3198 43 52.7144V67.5256C43 67.9202 43.7491 68.24 44.6731 68.24H70.3269C71.2509 68.24 72 67.9202 72 67.5256V52.7144C72 52.3198 71.2509 52 70.3269 52Z" fill="white" stroke="#ECEDF0"/>
<path d="M50.4191 64.5831C50.3214 64.6806 50.3213 64.8389 50.4188 64.9366C50.5164 65.0343 50.6747 65.0345 50.7724 64.9369L50.4191 64.5831ZM56.1197 63.5453L56.0591 63.7879C56.1268 63.8048 56.1985 63.7926 56.2568 63.7544C56.3151 63.7161 56.3548 63.6552 56.3663 63.5864L56.1197 63.5453ZM66.0501 60.3908C66.1606 60.4735 66.3173 60.451 66.4001 60.3405C66.4828 60.23 66.4603 60.0733 66.3498 59.9906L66.0501 60.3908ZM50.7724 64.9369C52.2076 63.5041 53.6873 60.8521 54.2418 58.5502C54.5183 57.4029 54.5761 56.2977 54.2409 55.4648C54.0708 55.0421 53.7985 54.688 53.4049 54.4419C53.013 54.197 52.5184 54.07 51.9197 54.07V54.57C52.4484 54.57 52.8454 54.6819 53.1398 54.8659C53.4325 55.0489 53.6412 55.3138 53.7771 55.6515C54.0539 56.3393 54.0239 57.3199 53.7557 58.4331C53.2211 60.6524 51.7841 63.2204 50.4191 64.5831L50.7724 64.9369ZM51.9197 54.07C51.2587 54.07 50.7405 54.2071 50.3679 54.4804C49.9887 54.7585 49.7896 55.1559 49.7299 55.611C49.6137 56.4959 50.0177 57.6319 50.6531 58.7423C51.2957 59.8652 52.2032 61.0109 53.1644 61.9307C54.1191 62.8442 55.1551 63.5623 56.0591 63.7879L56.1802 63.3028C55.4041 63.1091 54.4452 62.4643 53.5101 61.5694C52.5815 60.6808 51.7044 59.5727 51.0871 58.494C50.4627 57.4029 50.1319 56.3899 50.2256 55.6761C50.2708 55.3318 50.4129 55.0675 50.6636 54.8836C50.9207 54.695 51.3211 54.57 51.9197 54.57V54.07ZM56.3663 63.5864C56.4395 63.1475 56.4575 62.6836 56.4625 62.2441C56.4676 61.7962 56.4594 61.3864 56.4771 61.0197C56.495 60.65 56.5384 60.3746 56.6238 60.1969C56.6642 60.1128 56.709 60.0618 56.7552 60.0307C56.7999 60.0007 56.8626 59.978 56.9597 59.978V59.478C56.7788 59.478 56.6154 59.5222 56.4762 59.6158C56.3386 59.7083 56.2418 59.8375 56.1732 59.9803C56.0405 60.2562 55.9959 60.6207 55.9777 60.9956C55.9595 61.3736 55.9673 61.8133 55.9625 62.2384C55.9576 62.6719 55.9397 63.1045 55.8731 63.5042L56.3663 63.5864ZM56.9597 59.978C57.0894 59.978 57.1979 60.05 57.2994 60.2906C57.4027 60.5353 57.461 60.8756 57.5147 61.2526C57.566 61.6118 57.6135 62.0106 57.7042 62.3131C57.7499 62.4652 57.8134 62.6188 57.9123 62.7382C58.0185 62.8663 58.1683 62.9567 58.3605 62.9567V62.4567C58.3427 62.4567 58.326 62.4539 58.2973 62.4192C58.2612 62.3756 58.2213 62.2966 58.1831 62.1694C58.1063 61.9134 58.0647 61.5675 58.0097 61.1821C57.9573 60.8144 57.8925 60.41 57.7601 60.0962C57.6259 59.7783 57.3862 59.478 56.9597 59.478V59.978ZM58.3605 62.9567C58.5481 62.9567 58.6973 62.8721 58.8078 62.7536C58.9121 62.6416 58.9857 62.4963 59.0422 62.3515C59.1536 62.0659 59.2314 61.6886 59.3101 61.3671C59.3942 61.0236 59.4798 60.741 59.5988 60.5654C59.655 60.4825 59.7073 60.4413 59.7535 60.4225C59.7961 60.4053 59.8603 60.396 59.9656 60.4291L60.1156 59.9522C59.922 59.8913 59.7359 59.8902 59.5657 59.9591C59.3993 60.0266 59.2766 60.1496 59.1849 60.2849C59.0081 60.5458 58.9059 60.9157 58.8244 61.2482C58.7376 61.6028 58.672 61.9249 58.5764 62.1698C58.5294 62.2903 58.4836 62.368 58.442 62.4127C58.4064 62.4509 58.3829 62.4567 58.3605 62.4567V62.9567ZM59.9656 60.4291C60.4539 60.5827 60.6252 60.9112 60.7856 61.2719C60.8612 61.4421 60.948 61.6559 61.0776 61.8161C61.2247 61.9978 61.4293 62.118 61.7208 62.118V61.618C61.5921 61.618 61.5262 61.5755 61.4663 61.5015C61.3889 61.4059 61.3324 61.2709 61.2424 61.0688C61.0717 60.6848 60.823 60.1746 60.1156 59.9522L59.9656 60.4291ZM61.7208 62.118C61.9767 62.118 62.1188 61.9197 62.1938 61.771C62.2738 61.6128 62.3331 61.4042 62.387 61.1973C62.5011 60.7599 62.6065 60.2758 62.8154 59.8905C63.0152 59.5222 63.2853 59.2875 63.7286 59.2875C64.2085 59.2875 64.9406 59.5598 66.0501 60.3908L66.3498 59.9906C65.2197 59.1442 64.3771 58.7875 63.7286 58.7875C63.0432 58.7875 62.631 59.1818 62.3759 59.6521C62.13 60.1055 62.0079 60.6697 61.9032 61.0711C61.8478 61.2834 61.8 61.4418 61.7475 61.5456C61.6902 61.6591 61.6748 61.618 61.7208 61.618V62.118Z" fill="#F34549"/>
<path d="M51.0107 39.4761L47.7794 40.2398C47.0549 40.4161 46.4869 40.9644 46.3303 41.689L45.6449 44.5678C45.2728 46.1345 43.2753 46.6045 42.2374 45.3707L32.8961 34.639L23.5549 45.3903C22.5169 46.624 20.5194 46.154 20.1474 44.5873L19.4619 41.7086C19.2857 40.984 18.7178 40.4161 18.0128 40.2594L14.7815 39.4957C13.2932 39.1432 12.7644 37.2827 13.8415 36.2057L21.479 28.5682C23.594 31.7015 26.9428 33.9145 30.8399 34.4824C31.5057 34.5999 32.1911 34.6586 32.8961 34.6586C33.6011 34.6586 34.2865 34.5999 34.9524 34.4824C38.8494 33.9145 42.1982 31.7015 44.3132 28.5682L51.9507 36.2057C53.0278 37.2632 52.499 39.1236 51.0107 39.4761Z" fill="url(#paint0_linear_1480_61904)"/>
<path d="M51.0107 39.4761L47.7794 40.2398C47.0549 40.4161 46.4869 40.9644 46.3303 41.689L45.6449 44.5678C45.2728 46.1345 43.2753 46.6045 42.2374 45.3707L32.8961 34.639L23.5549 45.3903C22.5169 46.624 20.5194 46.154 20.1474 44.5873L19.4619 41.7086C19.2857 40.984 18.7178 40.4161 18.0128 40.2594L14.7815 39.4957C13.2932 39.1432 12.7644 37.2827 13.8415 36.2057L21.479 28.5682C23.594 31.7015 26.9428 33.9145 30.8399 34.4824C31.5057 34.5999 32.1911 34.6586 32.8961 34.6586C33.6011 34.6586 34.2865 34.5999 34.9524 34.4824C38.8494 33.9145 42.1982 31.7015 44.3132 28.5682L51.9507 36.2057C53.0278 37.2632 52.499 39.1236 51.0107 39.4761Z" fill="white" fill-opacity="0.2"/>
<path d="M51.0107 39.4761L47.7794 40.2398C47.0549 40.4161 46.4869 40.9644 46.3303 41.689L45.6449 44.5678C45.2728 46.1345 43.2753 46.6045 42.2374 45.3707L32.8961 34.639L23.5549 45.3903C22.5169 46.624 20.5194 46.154 20.1474 44.5873L19.4619 41.7086C19.2857 40.984 18.7178 40.4161 18.0128 40.2594L14.7815 39.4957C13.2932 39.1432 12.7644 37.2827 13.8415 36.2057L21.479 28.5682C23.594 31.7015 26.9428 33.9145 30.8399 34.4824C31.5057 34.5999 32.1911 34.6586 32.8961 34.6586C33.6011 34.6586 34.2865 34.5999 34.9524 34.4824C38.8494 33.9145 42.1982 31.7015 44.3132 28.5682L51.9507 36.2057C53.0278 37.2632 52.499 39.1236 51.0107 39.4761Z" stroke="white" stroke-linecap="round" stroke-linejoin="round"/>
<path d="M47.4542 21.625C47.4542 24.6121 46.5684 27.352 45.0439 29.6387C42.819 32.9348 39.2963 35.2627 35.1968 35.8601C34.4964 35.9837 33.7754 36.0455 33.0337 36.0455C32.2921 36.0455 31.5711 35.9837 30.8707 35.8601C26.7711 35.2627 23.2484 32.9348 21.0236 29.6387C19.4991 27.352 18.6133 24.6121 18.6133 21.625C18.6133 13.6526 25.0613 7.20456 33.0337 7.20456C41.0062 7.20456 47.4542 13.6526 47.4542 21.625Z" fill="url(#paint1_linear_1480_61904)"/>
<path d="M33.7174 15.6218L34.8728 17.9326C35.0295 18.2459 35.4407 18.5593 35.8128 18.618L37.9082 18.9705C39.2399 19.1859 39.5532 20.1651 38.5937 21.1247L36.9682 22.7501C36.6941 23.0243 36.5374 23.553 36.6353 23.9447L37.1053 25.9618C37.4774 27.548 36.6353 28.1747 35.2253 27.3326L33.267 26.1772C32.9145 25.9618 32.327 25.9618 31.9745 26.1772L30.0162 27.3326C28.6062 28.1551 27.7641 27.548 28.1362 25.9618L28.6062 23.9447C28.6845 23.5726 28.5474 23.0243 28.2732 22.7501L26.6478 21.1247C25.6882 20.1651 26.0016 19.2055 27.3332 18.9705L29.4287 18.618C29.7812 18.5593 30.1924 18.2459 30.3491 17.9326L31.5045 15.6218C32.0724 14.3685 33.0907 14.3685 33.7174 15.6218Z" stroke="white" stroke-linecap="round" stroke-linejoin="round"/>
<defs>
<linearGradient id="paint0_linear_1480_61904" x1="6.90214" y1="47.5716" x2="28.2655" y2="4.63332" gradientUnits="userSpaceOnUse">
<stop stop-color="#F34549"/>
<stop offset="1" stop-color="#FFE1E2"/>
</linearGradient>
<linearGradient id="paint1_linear_1480_61904" x1="13.932" y1="38.4801" x2="57.7552" y2="-0.848415" gradientUnits="userSpaceOnUse">
<stop stop-color="#F34549"/>
<stop offset="1" stop-color="#FFE1E2"/>
</linearGradient>
</defs>
</svg>
