<svg width="121" height="16" viewBox="0 0 121 16" fill="none" xmlns="http://www.w3.org/2000/svg">
    <defs>
        <linearGradient id="paint0_linear_20_7914" x1="2.71227" y1="13.4258" x2="0.690429" y2="7.59092" gradientUnits="userSpaceOnUse">
            <stop offset="0.1444" stop-color="#F2E913"/>
            <stop offset="0.3037" stop-color="#E7E518"/>
            <stop offset="0.5823" stop-color="#CADB26"/>
            <stop offset="0.891" stop-color="#A3CD39"/>
        </linearGradient>
        <linearGradient id="paint1_linear_20_7914" x1="2.86496" y1="2.67044" x2="8.05946" y2="0.694114" gradientUnits="userSpaceOnUse">
            <stop offset="0.0592" stop-color="#0FA8E0"/>
            <stop offset="0.5385" stop-color="#0099F9"/>
            <stop offset="0.9234" stop-color="#0291EB"/>
        </linearGradient>
        <linearGradient id="paint2_linear_20_7914" x1="7.46531" y1="14.8852" x2="13.338" y2="13.56" gradientUnits="userSpaceOnUse">
            <stop offset="0.1226" stop-color="#A3CD39"/>
            <stop offset="0.2846" stop-color="#86C339"/>
            <stop offset="0.8693" stop-color="#21A038"/>
        </linearGradient>
        <linearGradient id="paint3_linear_20_7914" x1="7.60037" y1="0.619549" x2="12.622" y2="2.16643" gradientUnits="userSpaceOnUse">
            <stop offset="0.0566" stop-color="#0291EB"/>
            <stop offset="0.79" stop-color="#0C8ACB"/>
        </linearGradient>
        <linearGradient id="paint4_linear_20_7914" x1="2.52713" y1="13.1427" x2="7.99377" y2="15.1819" gradientUnits="userSpaceOnUse">
            <stop offset="0.1324" stop-color="#F2E913"/>
            <stop offset="0.2977" stop-color="#EBE716"/>
            <stop offset="0.5306" stop-color="#D9E01F"/>
            <stop offset="0.8023" stop-color="#BBD62D"/>
            <stop offset="0.9829" stop-color="#A3CD39"/>
        </linearGradient>
        <linearGradient id="paint5_linear_20_7914" x1="0.686809" y1="8.22405" x2="2.88648" y2="2.51115" gradientUnits="userSpaceOnUse">
            <stop offset="0.0698" stop-color="#A3CD39"/>
            <stop offset="0.2599" stop-color="#81C55F"/>
            <stop offset="0.9216" stop-color="#0FA8E0"/>
        </linearGradient>
    </defs>
<path d="M45.9749 4.83124L48.1205 3.24707H40.9385V12.7611H48.1205V11.1769H42.9881V8.74153H47.3657V7.15732H42.9881V4.83124H45.9749Z" fill="#2A9E3E"/>
<path d="M35.5185 6.95592H33.0243V4.83124H37.0061L39.1519 3.24707H30.9746V12.7611H35.2542C37.6543 12.7611 39.0312 11.6718 39.0312 9.77217C39.0312 7.95617 37.7833 6.95592 35.5185 6.95592ZM35.1617 11.1769H33.0243V8.53961H35.1617C36.4629 8.53961 37.0687 8.98065 37.0687 9.85797C37.0682 10.7547 36.4269 11.1769 35.1617 11.1769Z" fill="#2A9E3E"/>
<path d="M53.9397 3.24707H50.0293V12.7611H52.0789V10.0662H53.9397C56.4349 10.0662 57.9849 8.75193 57.9849 6.65192C57.9849 4.55188 56.4353 3.24707 53.9397 3.24707ZM53.8957 8.48201H52.0789V4.83124H53.8957C55.2089 4.83124 55.9321 5.47948 55.9321 6.65664C55.9321 7.83377 55.2093 8.48201 53.8957 8.48201Z" fill="#2A9E3E"/>
<path d="M27.4561 10.6705C26.9306 10.961 26.3184 11.1147 25.687 11.1147C23.8389 11.1147 22.4981 9.79373 22.4981 7.97361C22.4981 6.15345 23.8394 4.8324 25.687 4.8324C26.3858 4.8324 27.0126 5.02912 27.5512 5.4168L29.021 4.33172L28.9239 4.24644C28.0657 3.49098 26.9186 3.0918 25.6076 3.0918C24.1852 3.0918 22.894 3.57207 21.9726 4.44472C21.0454 5.32212 20.5352 6.55681 20.5352 7.92125C20.5352 9.29197 21.0439 10.545 21.9674 11.4491C22.894 12.3563 24.1821 12.8559 25.5944 12.8559C27.0722 12.8559 28.3623 12.3401 29.2367 11.4009C28.5619 10.9029 27.9105 10.4221 27.9105 10.4221L27.4561 10.6705Z" fill="#2A9E3E"/>
<path d="M14.3069 3.10919C14.6843 3.5973 15.0067 4.13041 15.2641 4.69953L7.98653 10.0714L4.94629 8.16238V5.86582L7.98653 7.77486L14.3069 3.10919Z" fill="#2A9E3E"/>
<path d="M1.84463 8.00012C1.84463 7.89688 1.84727 7.79472 1.85257 7.69252L0.0100425 7.6004C0.00369997 7.7328 0 7.8662 0 8.00012C0 10.2093 0.893773 12.2094 2.33935 13.6568L3.64593 12.3481C2.53334 11.2342 1.84463 9.69633 1.84463 8.00012Z" fill="url(#paint0_linear_20_7914)"/>
<path d="M7.98542 1.84815C8.0885 1.84815 8.19054 1.85185 8.2925 1.85662L8.38446 0.0100588C8.25234 0.00370596 8.11918 0 7.98542 0C5.77982 0 3.78294 0.895217 2.33789 2.34314L3.64446 3.65183C4.75653 2.53796 6.2925 1.84815 7.98542 1.84815Z" fill="url(#paint1_linear_20_7914)"/>
<path d="M7.98595 14.1523C7.88287 14.1523 7.78087 14.1496 7.67887 14.1443L7.58691 15.9898C7.71903 15.9962 7.85223 15.9999 7.98595 15.9999C10.1916 15.9999 12.1884 15.1046 13.6335 13.6567L12.3269 12.348C11.2148 13.4619 9.6794 14.1523 7.98595 14.1523Z" fill="url(#paint2_linear_20_7914)"/>
<path d="M11.4489 2.92178L13.0023 1.77509C11.6312 0.665461 9.88645 0 7.98633 0V1.84815C9.27021 1.84815 10.4626 2.24467 11.4489 2.92178Z" fill="url(#paint3_linear_20_7914)"/>
<path d="M15.9729 8.0001C15.9729 7.5109 15.9291 7.03182 15.845 6.56702L14.1257 7.83598C14.1273 7.8905 14.1278 7.94506 14.1278 8.0001C14.1278 9.80642 13.3466 11.4333 12.1045 12.5598L13.3439 13.9321C14.9586 12.4688 15.9729 10.3533 15.9729 8.0001Z" fill="#2A9E3E"/>
<path d="M7.98685 14.1524C6.18345 14.1524 4.5592 13.3699 3.43445 12.1259L2.06445 13.3673C3.52589 14.9841 5.63797 16 7.98685 16V14.1524Z" fill="url(#paint4_linear_20_7914)"/>
<path d="M3.86792 3.44015L2.62848 2.06793C1.01429 3.53174 0 5.64725 0 7.99993H1.84516C1.84463 6.19357 2.62583 4.56673 3.86792 3.44015Z" fill="url(#paint5_linear_20_7914)"/>
<path d="M71.0403 9.0667C70.4937 10.0134 69.347 10.76 67.7203 10.76C65.5737 10.72 64.467 9.29336 64.467 7.48003C64.467 5.52003 65.7203 4.20002 67.7603 4.20002C69.1603 4.20002 70.2937 5.00002 70.8537 5.82669V3.50669C70.307 3.12002 69.227 2.66669 67.7603 2.66669C64.667 2.66669 62.667 4.65336 62.667 7.46669C62.667 10.48 64.6937 12.28 67.7337 12.2934C69.347 12.2934 70.5737 11.68 71.0403 11.12V9.0667Z" fill="#4A7BF7"/>
<path d="M71.771 10.6134V13.88H73.331V12.1467H79.851V13.88H81.411V10.6134H80.331V2.81335H73.771L73.7443 4.74669C73.7043 7.58669 73.3176 9.3467 72.7843 10.6134H71.771ZM75.291 4.78669V4.34669H78.6643V10.6134H74.411C74.9443 9.1467 75.2376 7.22669 75.291 4.78669Z" fill="#4A7BF7"/>
<path d="M88.9161 6.57336H84.6228V4.34669H89.4094V2.81335H82.9561V12.1467H89.5561V10.6134H84.6228V8.1067H88.9161V6.57336Z" fill="#4A7BF7"/>
<path d="M97.7759 12.1467H99.4426V2.81335H92.6959L92.6026 4.74669C92.3359 10.12 91.5759 10.52 90.9359 10.52C90.8159 10.52 90.6692 10.5067 90.5359 10.4534V12.1334C90.7359 12.2267 90.9892 12.2667 91.2826 12.2667C92.6426 12.2667 93.8292 11.5734 94.2026 4.78669L94.2292 4.34669H97.7759V12.1467Z" fill="#4A7BF7"/>
<path d="M103.542 8.1067H105.022L108.409 12.1467H110.542L106.409 7.25336L109.969 2.81335H107.942L104.942 6.73336H103.542V2.81335H101.875V12.1467H103.542V8.1067Z" fill="#4A7BF7"/>
<path d="M113.529 2.81335H111.862V12.1467H113.649L118.769 5.06669V12.1467H120.436V2.81335H118.622L113.529 9.7867V2.81335Z" fill="#4A7BF7"/>
</svg>
