<svg width="80" height="80" viewBox="0 0 80 80" fill="none" xmlns="http://www.w3.org/2000/svg">
<path d="M69.1731 43.137L50.8269 11.3604C48.1611 6.74307 42.2569 5.16106 37.6396 7.82687L5.86296 26.1731C1.24565 28.8389 -0.336356 34.7431 2.32945 39.3604L20.6757 71.137C23.3415 75.7544 29.2456 77.3364 33.863 74.6706L65.6396 56.3243C70.2569 53.6585 71.8389 47.7544 69.1731 43.137Z" fill="#F5F8FF"/>
<path fill-rule="evenodd" clip-rule="evenodd" d="M65.5745 11.2649C66.1268 11.2649 66.5745 10.8172 66.5745 10.2649V9.48271C66.5745 9.15475 66.8404 8.88889 67.1684 8.88889C67.4963 8.88889 67.7622 9.15475 67.7622 9.48271V10.2649C67.7622 10.8172 68.2099 11.2649 68.7622 11.2649H69.5435C69.8715 11.2649 70.1375 11.5308 70.1375 11.8589C70.1375 12.1869 69.8715 12.4529 69.5435 12.4529H68.7622C68.2099 12.4529 67.7622 12.9006 67.7622 13.4529V14.2351C67.7622 14.563 67.4963 14.8289 67.1684 14.8289C66.8404 14.8289 66.5745 14.563 66.5745 14.2351V13.4529C66.5745 12.9006 66.1268 12.4529 65.5745 12.4529H64.7932C64.4652 12.4529 64.1992 12.1869 64.1992 11.8589C64.1992 11.5308 64.4652 11.2649 64.7932 11.2649H65.5745Z" fill="#6BEAC7"/>
<path d="M55.202 55.3958L44.0551 66.3005L14.8482 66.3003C13.674 66.3003 12.7119 65.3382 12.7119 64.164V16.8237C12.7119 15.6495 13.674 14.6873 14.8482 14.6873H53.0656C54.2398 14.6873 55.202 15.6495 55.202 16.8237V55.3958Z" fill="white" stroke="#E8E8E8"/>
<path d="M18.2016 61.0474C18.104 61.145 18.104 61.3033 18.2016 61.401C18.2993 61.4986 18.4576 61.4986 18.5552 61.401L18.2016 61.0474ZM21.6662 60.5L21.6056 60.7425C21.6733 60.7595 21.745 60.7473 21.8033 60.7091C21.8617 60.6708 21.9014 60.6099 21.9129 60.5411L21.6662 60.5ZM27.516 58.7C27.6264 58.7828 27.7831 58.7605 27.866 58.65C27.9489 58.5396 27.9265 58.3829 27.816 58.3L27.516 58.7ZM18.5552 61.401C19.4236 60.5325 20.3129 58.9345 20.647 57.5456C20.8132 56.8546 20.8532 56.1707 20.6419 55.6449C20.5338 55.3758 20.3589 55.1467 20.1042 54.9872C19.8512 54.8288 19.537 54.75 19.1664 54.75V55.25C19.4669 55.25 19.6834 55.3136 19.8389 55.411C19.9926 55.5072 20.104 55.6472 20.178 55.8314C20.331 56.2122 20.3188 56.7718 20.1608 57.4286C19.8466 58.7351 18.9999 60.2492 18.2016 61.0474L18.5552 61.401ZM19.1664 54.75C18.7603 54.75 18.428 54.8342 18.1828 55.0143C17.9311 55.1992 17.8012 55.463 17.7627 55.7566C17.689 56.3185 17.9442 57.0206 18.3246 57.6865C18.7122 58.3648 19.2585 59.0555 19.8372 59.6102C20.4093 60.1586 21.0416 60.6015 21.6056 60.7425L21.7269 60.2575C21.2909 60.1485 20.7358 59.7789 20.1832 59.2492C19.637 58.7257 19.1211 58.0727 18.7588 57.4385C18.3894 56.7919 18.2072 56.2127 18.2585 55.8216C18.2825 55.6386 18.3556 55.5078 18.4788 55.4173C18.6085 55.322 18.8228 55.25 19.1664 55.25V54.75ZM21.9129 60.5411C21.9577 60.2715 21.9685 59.9886 21.9715 59.7254C21.9746 59.4537 21.9697 59.2154 21.9801 58.9991C21.9907 58.7798 22.0162 58.6335 22.0576 58.5473C22.076 58.509 22.0921 58.4944 22.1011 58.4883C22.1086 58.4833 22.1255 58.4742 22.1662 58.4742V57.9742C22.0415 57.9742 21.9238 58.0049 21.8219 58.0736C21.7214 58.1412 21.6533 58.2341 21.6068 58.331C21.5184 58.5153 21.4915 58.7505 21.4807 58.975C21.4697 59.2027 21.4743 59.4709 21.4715 59.7197C21.4686 59.9769 21.458 60.2285 21.4196 60.4589L21.9129 60.5411ZM22.1662 58.4742C22.1832 58.4742 22.2212 58.4707 22.2751 58.5987C22.3307 58.7307 22.3641 58.9206 22.3964 59.1473C22.4261 59.3562 22.4556 59.6046 22.5124 59.7943C22.5411 59.8899 22.5836 59.9966 22.6551 60.083C22.734 60.1783 22.8501 60.25 23 60.25V59.75C23.0249 59.75 23.0419 59.7662 23.0404 59.7643C23.0316 59.7537 23.0126 59.7216 22.9914 59.6508C22.9484 59.5075 22.9249 59.3119 22.8914 59.0769C22.8605 58.8596 22.8206 58.6056 22.7359 58.4046C22.6496 58.1996 22.4804 57.9742 22.1662 57.9742V58.4742ZM23 60.25C23.1453 60.25 23.2595 60.1835 23.3404 60.0966C23.4152 60.0163 23.4646 59.916 23.5001 59.8248C23.5696 59.6464 23.6183 59.4103 23.6635 59.2253C23.7141 59.0183 23.7617 58.8673 23.8209 58.7799C23.8472 58.741 23.8641 58.733 23.8673 58.7317C23.8689 58.7311 23.8721 58.73 23.8791 58.7299C23.8867 58.7298 23.9014 58.7311 23.9249 58.7384L24.0751 58.2616C23.942 58.2196 23.8064 58.2168 23.6792 58.2684C23.5558 58.3185 23.4685 58.4085 23.4068 58.4997C23.2899 58.6725 23.2257 58.9106 23.1778 59.1066C23.1245 59.3246 23.0878 59.5056 23.0342 59.6434C23.0081 59.7103 22.9864 59.743 22.9743 59.7561C22.9682 59.7626 22.9797 59.75 23 59.75V60.25ZM23.9249 58.7384C24.1711 58.816 24.2574 58.975 24.3509 59.1855C24.393 59.2805 24.4507 59.4239 24.5384 59.5324C24.6435 59.6625 24.7934 59.75 25 59.75V59.25C24.9566 59.25 24.9454 59.2405 24.9273 59.2182C24.8918 59.1742 24.8642 59.1096 24.8078 58.9826C24.7042 58.7492 24.5405 58.4082 24.0751 58.2616L23.9249 58.7384ZM25 59.75C25.2137 59.75 25.3238 59.5831 25.372 59.4875C25.4251 59.3822 25.4627 59.2478 25.4945 59.1255C25.5643 58.8575 25.6236 58.585 25.7406 58.369C25.8484 58.17 25.9805 58.0625 26.195 58.0625C26.4465 58.0625 26.8598 58.2077 27.516 58.7L27.816 58.3C27.1392 57.7923 26.6153 57.5625 26.195 57.5625C25.7379 57.5625 25.4639 57.83 25.3009 58.131C25.1471 58.415 25.0711 58.7675 25.0107 58.9995C24.9774 59.1272 24.9512 59.2115 24.9255 59.2625C24.8949 59.3231 24.9113 59.25 25 59.25V59.75Z" fill="#4A7BF7"/>
<path d="M48.812 23.7219H19.1011C18.3862 23.7219 17.8066 24.3014 17.8066 25.0164C17.8066 25.7312 18.3862 26.3108 19.1011 26.3108H48.8121C49.5269 26.3108 50.1065 25.7312 50.1065 25.0164C50.1065 24.3014 49.5269 23.7219 48.812 23.7219Z" fill="url(#paint0_linear_62_10245)"/>
<path d="M48.8121 31.6121H19.1011C18.3862 31.6121 17.8066 32.1916 17.8066 32.9065C17.8066 33.6214 18.3862 34.201 19.1011 34.201H48.8121C49.5269 34.201 50.1065 33.6214 50.1065 32.9065C50.1065 32.1916 49.5269 31.6121 48.8121 31.6121Z" fill="#ECEDF0"/>
<path d="M48.812 39.5019H19.1011C18.3862 39.5019 17.8066 40.0815 17.8066 40.7964C17.8066 41.5113 18.3862 42.0909 19.1011 42.0909H48.812C49.5269 42.0909 50.1065 41.5113 50.1065 40.7964C50.1065 40.0815 49.5269 39.5019 48.812 39.5019Z" fill="#ECEDF0"/>
<path d="M31.7991 47.5155H19.1011C18.3862 47.5155 17.8066 48.095 17.8066 48.8099C17.8066 49.5248 18.3862 50.1044 19.1011 50.1044H31.7991C32.514 50.1044 33.0936 49.5248 33.0936 48.8099C33.0936 48.095 32.514 47.5155 31.7991 47.5155Z" fill="#ECEDF0"/>
<path d="M44.1885 66.6295L55.5304 55.5342H45.1885C44.6362 55.5342 44.1885 55.9819 44.1885 56.5342V66.6295Z" fill="#ECEDF0"/>
<g filter="url(#filter0_d_62_10245)">
<path d="M43.692 54.6466C45.6645 53.5371 47.637 52.3043 49.4862 50.9481L70.6907 33.9353C71.9236 32.9491 72.1701 30.9765 71.1838 29.7437C70.1977 28.5108 68.2251 28.2643 66.9922 29.2506L45.7877 46.2634C44.0619 47.7428 42.4591 49.4687 40.8564 51.1948L43.692 54.6466Z" fill="url(#paint1_linear_62_10245)"/>
</g>
<path d="M41.1032 50.9482C39.1306 53.0439 37.4047 55.3864 35.9253 57.8519C35.802 57.9753 35.9253 58.2218 36.1718 58.0985C38.8841 57.1123 41.473 56.0028 44.0619 54.5234L41.1032 50.9482Z" fill="#E8EAE9"/>
<path d="M41.1032 50.9482C39.1306 53.0439 37.4047 55.3864 35.9253 57.8519C35.802 57.9753 35.9253 58.2218 36.1718 58.0985C38.8841 57.1123 41.4731 56.0028 44.0619 54.5234L41.1032 50.9482Z" fill="#203883"/>
<path d="M48.9933 43.6746L47.8838 44.5374L51.7056 49.2222L52.6918 48.3592L48.9933 43.6746Z" fill="#203883"/>
<path d="M67.2389 37.0174L63.2939 31.9627L65.1432 30.3601L69.2115 35.4146L67.2389 37.0174Z" fill="#203883"/>
<path d="M60.3349 45.0306C60.0884 44.6608 60.0884 44.1676 60.4582 43.9211L68.3483 37.6338L66.8689 35.7845L68.1018 34.7983L69.951 37.1407C70.1975 37.5105 70.1975 38.0036 69.8276 38.2503L61.3213 45.0308C61.0746 45.4005 60.5814 45.4005 60.3349 45.0306Z" fill="#203883"/>
<path fill-rule="evenodd" clip-rule="evenodd" d="M1.37531 60.6476C1.92759 60.6476 2.37531 60.1999 2.37531 59.6476V58.8654C2.37531 58.5375 2.64117 58.2716 2.96913 58.2716C3.29709 58.2716 3.56296 58.5375 3.56296 58.8654V59.6476C3.56296 60.1999 4.01067 60.6476 4.56296 60.6476H5.34427C5.67233 60.6476 5.93827 60.9135 5.93827 61.2416C5.93827 61.5697 5.67233 61.8356 5.34427 61.8356H4.56296C4.01068 61.8356 3.56296 62.2833 3.56296 62.8356V63.6178C3.56296 63.9457 3.29709 64.2116 2.96913 64.2116C2.64117 64.2116 2.37531 63.9457 2.37531 63.6178V62.8356C2.37531 62.2833 1.92759 61.8356 1.37531 61.8356H0.594C0.265943 61.8356 0 61.5697 0 61.2416C0 60.9135 0.265943 60.6476 0.594 60.6476H1.37531Z" fill="#9BD0FE"/>
<defs>
<filter id="filter0_d_62_10245" x="39.8564" y="27.642" width="38.9355" height="34.0046" filterUnits="userSpaceOnUse" color-interpolation-filters="sRGB">
<feFlood flood-opacity="0" result="BackgroundImageFix"/>
<feColorMatrix in="SourceAlpha" type="matrix" values="0 0 0 0 0 0 0 0 0 0 0 0 0 0 0 0 0 0 127 0" result="hardAlpha"/>
<feOffset dx="3" dy="3"/>
<feGaussianBlur stdDeviation="2"/>
<feComposite in2="hardAlpha" operator="out"/>
<feColorMatrix type="matrix" values="0 0 0 0 0.360784 0 0 0 0 0.556863 0 0 0 0 0.976471 0 0 0 0.24 0"/>
<feBlend mode="normal" in2="BackgroundImageFix" result="effect1_dropShadow_62_10245"/>
<feBlend mode="normal" in="SourceGraphic" in2="effect1_dropShadow_62_10245" result="shape"/>
</filter>
<linearGradient id="paint0_linear_62_10245" x1="17.8066" y1="26.3108" x2="21.57" y2="14.5727" gradientUnits="userSpaceOnUse">
<stop stop-color="#4A7BF7"/>
<stop offset="1" stop-color="#9BD0FE"/>
</linearGradient>
<linearGradient id="paint1_linear_62_10245" x1="40.8564" y1="54.6466" x2="76.384" y2="44.0804" gradientUnits="userSpaceOnUse">
<stop stop-color="#4A7BF7"/>
<stop offset="1" stop-color="#9BD0FE"/>
</linearGradient>
</defs>
</svg>
